<svg xmlns="http://www.w3.org/2000/svg"><style>:root{visibility:hidden}:target{visibility:visible}</style><svg viewBox="0 0 8 21" id="bradcrumbs-arrow"><path d="M6.92 9.97 2.17 5.72c-.25-.25-.75-.25-1.13 0-.37.25-.25.75 0 1l4.13 3.75-4 3.75a.76.76 0 0 0 0 1c0 .12.37.25.5.25.12 0 .37-.13.5-.25l4.75-4.25a.59.59 0 0 0 0-1Z" fill="#fff"></path></svg><svg viewBox="0 0 13 15" id="bradcrumbs-home"><path d="m6.5.5-6 5.8v6.2h12V6.3L6.5.5Zm5 11h-10V6.7l5-4.8 5 4.8v4.8Z" fill="#fff"></path><path d="M4.5 10.5h1V8h2v2.5h1V7h-4v3.5Z" fill="#fff"></path></svg><svg viewBox="0 0 84 84" id="food"><path d="M74.9 57.7H9.1A4.2 4.2 0 0 0 5 62v3.5c0 2.4 1.9 4.3 4.1 4.3h.9v1.1A10 10 0 0 0 19.6 81h44.6c5.3 0 9.6-4.5 9.6-10.1v-1.1h.9c2.3 0 4.1-1.9 4.1-4.3V62a4 4 0 0 0-3.9-4.3ZM71 70.9c0 3.9-3 7-6.7 7H19.6a6.9 6.9 0 0 1-6.7-7v-1.1H71v1.1Zm5.1-5.4c0 .7-.6 1.3-1.2 1.3H9c-.7 0-1.2-.6-1.2-1.3V62c0-.7.6-1.3 1.2-1.3h65.8c.7 0 1.2.6 1.2 1.3l.1 3.5ZM20.6 49.4l5.4 4.1 5.3-4.1 5.3 4.1 5.3-4.1 5.4 4.1 5.3-4.1 5.3 4.1 5.4-4.1 5.3 4.1 6.2-4.7-1.7-2.5-4.5 3.4-5.3-4.1-5.4 4.1-5.3-4.1-5.3 4.1-5.4-4.1-5.3 4.1-5.3-4.1-5.3 4.1-5.4-4.1-5.3 4.1-4.5-3.4-1.7 2.5 6.2 4.7 5.3-4.1ZM13 42.5h60.8l.1-1.9v-1.2C73.2 23.7 59.2 11 42 11c-17.3 0-31.3 12.7-32 28.5v1.2l.1 1.8H13ZM42 14c15.6 0 28.4 11.3 29 25.5H13C13.6 25.4 26.4 14 42 14ZM42 28.3a2 2 0 0 0 1.9-2 2 2 0 0 0-1.9-2 2 2 0 0 0-1.9 2c0 1.1.9 2 1.9 2ZM34.2 23.2a2 2 0 0 0 1.9-2 2 2 0 0 0-1.9-2 2 2 0 0 0-1.9 2c0 1.1.9 2 1.9 2ZM49.7 23.2a2 2 0 0 0 1.9-2 2 2 0 0 0-1.9-2 2 2 0 0 0-1.9 2c0 1.1.9 2 1.9 2Z" fill="#83b3d3"></path></svg><svg viewBox="0 0 20 20" id="heart"><path d="M9.9 19a.9.9 0 0 1-.8-.4c-5.4-6.1-6.7-7.5-7-7.9A5.4 5.4 0 0 1 6.5 2C7.8 2 9 2.5 10 3.3a5.46 5.46 0 0 1 9 4.1c0 1.3-.5 2.5-1.3 3.4l-7 7.9c-.2.2-.4.3-.8.3Zm-6-9.5c.3.4 3.5 4 6.1 6.9l6.2-7c.5-.5.7-1.2.7-2 0-1.8-1.5-3.3-3.3-3.3-1 0-2 .5-2.7 1.3-.3.3-.6.4-.9.4-.3 0-.6-.2-.8-.4-.7-.8-1.7-1.3-2.7-1.3-1.8 0-3.3 1.5-3.3 3.3-.1.9.3 1.6.7 2.1-.1 0-.1 0 0 0Z"></path></svg><svg viewBox="0 0 84 84" id="house"><path d="M42 8.4 4.4 45.9l2.2 2.2 7.4-7.5V78h-4v3h65v-3h-5V40.6l7.4 7.5 2.2-2.2-9.6-9.5V9H56v13.4ZM59 12h8v21.4l-8-8zm8 66H17V37.6l25-25 25 25zM34 50v24h16V50Zm3 21V53h10v18ZM21 50h3v4h-3zm9 0h-3v4h3zm-9 6h3v4h-3zm9 0h-3v4h3zm24-6h3v4h-3zm9 0h-3v4h3zm-9 6h3v4h-3zm9 0h-3v4h3zM37 36c0-6.67 10-6.67 10 0a5 5 0 1 1-10 0zm5-8a8 8 0 1 0 0 16 8 8 0 0 0 0-16z" fill="#83b3d3"></path></svg><svg viewBox="0 0 115 34" id="logo-htmlacademy"><path d="M0 13.26v2.6h2.5v-2.6H0Zm11.6-8.4c-1.6 0-2.8.7-3.6 1.7h-.1V.36h-2v15.5h2v-5.3c0-2.1 1.3-3.6 3.3-3.6 1.8 0 2.9 1.4 2.9 3.2v5.7h2v-6.1c.1-3-1.8-4.9-4.5-4.9Zm15 .3h-4.8v-3.7h-2v3.8h-1.9v2h1.9v6c0 1.7 1 2.7 2.7 2.7h4.1v-2h-3.7c-.7 0-1.1-.4-1.1-1.1v-5.7h4.8v-2Zm14.5-.2c-1.6 0-2.9.8-3.5 2.1h-.1c-.6-1.2-1.8-2.1-3.4-2.1-1.4 0-2.5.8-3.1 1.8h-.1v-1.6H29v10.6h2v-5.4c0-2 1-3.5 2.6-3.5 1.5 0 2.4 1 2.4 2.6v6.3h2v-5.6c0-2.4 1.4-3.3 2.6-3.3 1.5 0 2.4 1 2.4 2.6v6.3h2v-6.5c.1-2.5-1.4-4.3-3.9-4.3Zm6.7 8.1c0 1.7 1 2.7 2.8 2.7h2v-2h-1.7c-.7 0-1.1-.4-1.1-1.1V.36h-2v12.7Zm-18.9 7c-.9-1.1-2.2-1.8-3.9-1.8-3.1 0-5.4 2.3-5.4 5.6s2.3 5.6 5.4 5.6c1.8 0 3-.8 3.8-1.9h.1v1.6h2v-10.6h-2v1.5Zm-3.6 7.4c-2.2 0-3.6-1.6-3.6-3.6s1.4-3.6 3.6-3.6 3.6 1.6 3.6 3.6c0 1.9-1.4 3.6-3.6 3.6Zm18.9-5.1c-.5-2.4-2.6-4.1-5.4-4.1a5.4 5.4 0 0 0-5.6 5.6c0 3.1 2.2 5.6 5.6 5.6 2.8 0 4.9-1.8 5.4-4.2h-2.1a3.4 3.4 0 0 1-3.3 2.3c-2.2 0-3.6-1.6-3.6-3.6s1.4-3.6 3.6-3.6c1.6 0 2.8 1 3.3 2.2h2.1v-.2Zm10.9-2.3c-.9-1.1-2.2-1.8-3.9-1.8-3.1 0-5.4 2.3-5.4 5.6s2.3 5.6 5.4 5.6c1.8 0 3-.8 3.8-1.9h.1v1.6h2v-10.6h-2v1.5Zm-3.6 7.4c-2.2 0-3.6-1.6-3.6-3.6s1.4-3.6 3.6-3.6 3.6 1.6 3.6 3.6c0 1.9-1.5 3.6-3.6 3.6Zm17.2-7.3c-.9-1.1-2.2-1.9-3.9-1.9-3.1 0-5.4 2.3-5.4 5.6s2.2 5.6 5.4 5.6c1.7 0 3-.8 3.8-1.8h.1v1.5h2v-15.4h-2v6.4Zm-3.6 7.3c-2.2 0-3.6-1.6-3.6-3.6s1.4-3.6 3.6-3.6 3.6 1.6 3.6 3.6c-.1 2-1.5 3.6-3.6 3.6Zm13.2-9.2c-3.3 0-5.5 2.5-5.5 5.6 0 3 2.1 5.6 5.5 5.6 2.5 0 4.5-1.3 5.2-3.6h-2.1c-.5 1-1.6 1.6-3 1.6-1.9 0-3.3-1.3-3.4-2.9h8.8c.2-3.6-2-6.3-5.5-6.3Zm0 1.9c1.7 0 3 1 3.3 2.6h-6.5c.3-1.5 1.5-2.6 3.2-2.6Zm19.9-1.9c-1.6 0-2.9.8-3.6 2h-.1c-.6-1.2-1.8-2-3.4-2-1.4 0-2.5.7-3.1 1.8v-1.5h-1.9v10.6h2v-5.4c0-2 1-3.4 2.6-3.5 1.5 0 2.4 1 2.4 2.6v6.3h2v-5.6c0-2.4 1.4-3.3 2.6-3.3 1.5 0 2.4 1 2.4 2.6v6.3h2v-6.5c.1-2.6-1.4-4.4-3.9-4.4Zm11.2 9.1-3.6-8.9h-2.2l4.8 11.6c-.3.9-.7 1.2-1.7 1.2h-2.5v2h2.5c1.8 0 2.8-.8 3.5-2.6l4.7-12.2h-2.1l-3.4 8.9Z"></path></svg><svg viewBox="0 0 20 20" id="search"><path d="m19.5 18-3.7-3.67a8 8 0 0 0 1.7-4.87 8 8 0 0 0-8-7.96c-4.4 0-8 3.68-8 8.06a8 8 0 0 0 12.9 6.26l3.7 3.68 1.4-1.5Zm-10-2.48a6 6 0 0 1-6-5.96 6 6 0 0 1 12 0 6 6 0 0 1-6 5.96Z"></path></svg><svg viewBox="0 0 84 84" id="souvenirs"><path d="M71.1 27.5H46.3c13.8-6.9 14.9-11.3 14.4-13.7-1.2-4-5.7-7-10-5.4-5.6 2.1-7.1 10.4-8.6 16.4-2-6.1-3.8-13.8-8.2-17.7a7.3 7.3 0 0 0-5.8-2c-4 .4-9.8 5.4-7.5 11 2.3 5.4 9.7 8.8 14.6 11.5H12.9a2.9 2.9 0 0 0-2.9 2.9v11.3c0 1.6 1.3 2.9 2.9 2.9h.3V81H71V44.6h.1c1.6 0 2.9-1.3 2.9-2.9V30.4c0-1.6-1.3-2.9-2.9-2.9ZM52.4 10.9c2.1-.3 5 1.3 5.3 3.2.4 2.8-3.4 5.3-5.1 6.4-2.5 1.7-4.9 2.6-7.3 4.1.9-3.7 2.5-13 7.1-13.7Zm-22.9 10c-2.2-1.5-6.5-4.4-6.4-7.8.1-3.6 5.7-6.6 8.8-3.9 3.9 3.4 5.7 11.1 7.1 16.6-3.2-1.5-6.3-2.8-9.5-4.9Zm6 57.1H16.1V44.6h19.4V78Zm0-36.5H13v-11h22.5v11Zm10.2 0V78h-7.2V30.6h7.2v10.9ZM68 78H48.6V44.6H68V78Zm2.9-36.5H48.6v-11h22.3v11Z" fill="#83b3d3"></path></svg><svg viewBox="0 0 24 24" id="telegram"><path d="M19.79 3.96 3.84 10.1c-1.09.44-1.08 1.05-.2 1.32l4.1 1.28 9.47-5.98c.44-.27.85-.13.52.17l-7.68 6.93-.28 4.22c.41 0 .6-.2.83-.41l1.99-1.94 4.13 3.06c.77.42 1.31.2 1.5-.7l2.72-12.8c.28-1.12-.43-1.62-1.16-1.3Z"></path></svg><svg viewBox="0 0 24 24" id="vk"><path d="M23.45 5.8c.17-.54 0-.94-.8-.94h-2.62c-.67 0-.98.34-1.14.73 0 0-1.34 3.2-3.23 5.27-.61.6-.89.8-1.22.8-.17 0-.42-.2-.42-.75v-5.1c0-.66-.19-.95-.74-.95H9.15c-.42 0-.67.3-.67.59 0 .62.95.76 1.05 2.51v3.8c0 .83-.16.98-.5.98-.88 0-3.05-3.2-4.33-6.88-.25-.72-.5-1-1.17-1H.9c-.75 0-.9.34-.9.73 0 .68.89 4.07 4.14 8.55 2.17 3.06 5.23 4.72 8.01 4.72 1.67 0 1.88-.37 1.88-1v-2.32c0-.74.16-.88.68-.88.4 0 1.06.19 2.62 1.66 1.78 1.75 2.07 2.54 3.07 2.54h2.63c.75 0 1.13-.37.91-1.1-.24-.72-1.09-1.77-2.22-3.02-.6-.71-1.53-1.48-1.8-1.86-.4-.5-.28-.71 0-1.15 0 0 3.2-4.42 3.53-5.93Z"></path></svg><svg viewBox="0 0 24 24" id="youtube"><path d="M19.6 3.36H4.18C2.31 3.36 1 4.95 1 6.76v10.09c0 1.91 1.31 3.5 3.17 3.5h15.66c1.64 0 3.17-1.59 3.17-3.4V6.76c-.22-1.8-1.53-3.4-3.4-3.4ZM8.67 15.89V7.82L16 11.86l-7.33 4.03Z"></path></svg></svg>